<svg xmlns="http://www.w3.org/2000/svg" viewBox="0 0 24 24" width="24" height="24">
  <!-- Base - a stylized leaf background -->
  <path fill="#4CAF50" d="M12,2L4,12L8,18L16,18L20,12L12,2Z" />
  
  <!-- Leaf veins -->
  <path fill="#2E7D32" d="M12,2L12,9L16,12L16,18L16,12L20,12L12,2Z" />
  <path fill="#2E7D32" d="M12,2L12,9L8,12L8,18L8,12L4,12L12,2Z" />
  
  <!-- Stem -->
  <rect fill="#795548" x="11" y="18" width="2" height="4" />
  
  <!-- Dollar sign for finance -->
  <path fill="#FFF" d="M12,5A4,4 0 0,1 16,9C16,10.5 14.5,11.5 13,12V13H11V12C9.5,11.5 8,10.5 8,9H10C10,9.5 10.5,10 11,10H13C13.5,10 14,9.5 14,9C14,8.5 13.5,8 13,8H11C9.5,8 8,7 8,5.5C8,4 9.5,3 11,2.5V2H13V2.5C14.5,3 16,4 16,5.5H14C14,5 13.5,4.5 13,4.5H11C10.5,4.5 10,5 10,5.5C10,6 10.5,6.5 11,6.5H13C14.5,6.5 16,7.5 16,9C16,10.5 14.5,11.5 13,12H12" />
</svg> 